<?xml version="1.0" encoding="UTF-8" standalone="no"?><!DOCTYPE svg PUBLIC "-//W3C//DTD SVG 1.1//EN" "http://www.w3.org/Graphics/SVG/1.1/DTD/svg11.dtd"><svg width="18px" height="18px" viewBox="0 0 18 18" version="1.1" xmlns="http://www.w3.org/2000/svg" xmlns:xlink="http://www.w3.org/1999/xlink" xml:space="preserve" style="fill-rule:evenodd;clip-rule:evenodd;stroke-linejoin:round;stroke-miterlimit:1.41421;"><path id="dribbble" d="M17.815,7.187c-0.118,-0.578 -0.295,-1.148 -0.524,-1.691c-0.226,-0.534 -0.505,-1.049 -0.83,-1.529c-0.322,-0.477 -0.692,-0.925 -1.099,-1.331c-0.407,-0.408 -0.854,-0.778 -1.331,-1.099c-0.481,-0.326 -0.996,-0.605 -1.529,-0.831c-0.544,-0.229 -1.113,-0.406 -1.692,-0.524c-0.592,-0.121 -1.202,-0.183 -1.811,-0.183c-0.61,0 -1.22,0.062 -1.813,0.183c-0.579,0.118 -1.148,0.295 -1.691,0.524c-0.534,0.226 -1.049,0.505 -1.53,0.831c-0.476,0.321 -0.924,0.691 -1.331,1.098c-0.407,0.407 -0.776,0.855 -1.098,1.331c-0.325,0.481 -0.605,0.995 -0.83,1.529c-0.23,0.544 -0.407,1.114 -0.525,1.692c-0.121,0.591 -0.183,1.202 -0.183,1.811c0,0.611 0.062,1.221 0.183,1.814c0.118,0.578 0.295,1.147 0.525,1.691c0.225,0.533 0.505,1.048 0.83,1.529c0.322,0.477 0.691,0.924 1.098,1.331c0.407,0.407 0.855,0.776 1.331,1.098c0.481,0.325 0.996,0.605 1.529,0.83c0.544,0.23 1.113,0.406 1.691,0.525c0.594,0.122 1.203,0.183 1.813,0.183c0.61,0 1.219,-0.061 1.812,-0.183c0.579,-0.119 1.148,-0.295 1.691,-0.525c0.534,-0.225 1.049,-0.505 1.53,-0.83c0.476,-0.322 0.924,-0.691 1.331,-1.098c0.407,-0.407 0.777,-0.854 1.098,-1.331c0.325,-0.481 0.605,-0.996 0.83,-1.529c0.23,-0.544 0.407,-1.113 0.525,-1.691c0.121,-0.593 0.183,-1.203 0.183,-1.814c0,-0.609 -0.061,-1.219 -0.183,-1.811Zm-8.816,-5.874c1.945,0 3.721,0.725 5.076,1.917c-0.019,0.03 -1.114,1.696 -4.015,2.784c-1.314,-2.414 -2.757,-4.332 -2.873,-4.484c0.581,-0.141 1.187,-0.217 1.812,-0.217Zm-1.841,0.223c-0.001,0.001 -0.002,0.001 -0.002,0.001c0,0 -0.009,0.003 -0.023,0.005c0.008,-0.002 0.016,-0.003 0.025,-0.006Zm-1.439,0.511c0.102,0.138 1.523,2.065 2.854,4.429c-3.691,0.981 -6.893,0.942 -7.097,0.938c0.5,-2.38 2.099,-4.354 4.243,-5.367Zm-2.438,12.089c-1.223,-1.362 -1.968,-3.163 -1.968,-5.138c0,-0.082 0.003,-0.162 0.006,-0.242c0.135,0.003 3.933,0.089 7.891,-1.095c0.22,0.43 0.431,0.869 0.624,1.306c-0.102,0.028 -0.203,0.059 -0.303,0.092c-4.149,1.34 -6.252,5.073 -6.252,5.073c0,0 0.002,0.002 0.002,0.004Zm5.718,2.549c-1.783,0 -3.419,-0.612 -4.723,-1.629c-0.001,0 -0.002,0.002 -0.002,0.002c0,0 -0.071,-0.053 -0.172,-0.134c0.056,0.046 0.116,0.087 0.174,0.132c0.028,-0.062 1.516,-3.227 6.03,-4.799c0.017,-0.006 0.034,-0.012 0.051,-0.016c1.082,2.81 1.529,5.164 1.642,5.836c-0.922,0.391 -1.936,0.608 -3,0.608Zm4.294,-1.311c-0.078,-0.464 -0.487,-2.72 -1.496,-5.49c2.482,-0.397 4.632,0.284 4.79,0.335c-0.342,2.142 -1.568,3.989 -3.294,5.155Zm-1.964,-6.703c-0.054,-0.132 -0.109,-0.264 -0.166,-0.397c-0.16,-0.376 -0.332,-0.749 -0.511,-1.115c3.035,-1.239 4.268,-3.021 4.282,-3.042c1.078,1.309 1.73,2.981 1.748,4.805c-0.111,-0.024 -2.712,-0.584 -5.353,-0.251Z" style="fill: #222222;fill-rule:nonzero;"/></svg>
