<?xml version="1.0" encoding="UTF-8"?>
<svg width="312px" height="100px" viewBox="0 0 312 100" version="1.1" xmlns="http://www.w3.org/2000/svg" xmlns:xlink="http://www.w3.org/1999/xlink">
    <!-- Generator: Sketch 41.2 (35397) - http://www.bohemiancoding.com/sketch -->
    <title>logo</title>
    <desc>Created with Sketch.</desc>
    <defs></defs>
    <g id="Page-1" stroke="none" stroke-width="1" fill="none" fill-rule="evenodd">
        <g id="logo" fill="#201E1E">
            <g id="Group" transform="translate(0.000000, 11.000000)">
                <path d="M37.1333871,49.838848 L34.3415011,42.7770187 L32.5740887,51.0940236 C31.663011,55.3678771 29.6688067,57.5302202 25.6256553,57.5302202 L23.631451,57.5302202 C19.8737445,57.5302202 17.6488382,55.250571 18.5481852,50.9806277 L23.7878592,26.4284537 C24.7145777,22.0998574 26.7087819,20.1017429 30.6385374,20.1017429 L32.7539581,20.1017429 C36.5155748,20.1017429 38.7365709,22.3813921 37.8372239,26.6513354 L35.9916074,35.1990424 L49.1494454,19.5347632 C49.3214944,19.3627142 57.9239443,20.9033348 57.9239443,26.2564047 C57.9239443,28.211507 56.8408177,30.2995562 54.5064256,32.5127319 L46.8737064,40.258847 L49.8923843,46.2962027 C51.4290947,49.3735336 52.9110622,50.5114031 55.3666706,50.6247991 C55.757691,50.6247991 55.4253236,57.6905386 47.2217146,57.6905386 C41.2899344,57.6827181 39.1236812,54.9103832 37.1333871,49.838848 Z" id="Shape"></path>
                <path d="M39.12,78.073457 C60.6334003,78.073457 78.073457,60.6334003 78.073457,39.12 C78.073457,17.6065997 60.6334003,0.166542969 39.12,0.166542969 C17.6065997,0.166542969 0.166542969,17.6065997 0.166542969,39.12 C0.166542969,60.6334003 17.6065997,78.073457 39.12,78.073457 Z M39.12,72.2081503 C20.8459192,72.2081503 6.03184969,57.3940808 6.03184969,39.12 C6.03184969,20.8459192 20.8459192,6.03184969 39.12,6.03184969 C57.3940808,6.03184969 72.2081503,20.8459192 72.2081503,39.12 C72.2081503,57.3940808 57.3940808,72.2081503 39.12,72.2081503 Z" id="Oval"></path>
            </g>
            <polygon id="Rectangle" points="98 0 101 0 101 100 98 100"></polygon>
            <path d="M161.705,69 L158.68,31.05 L154.06,31.05 L140.97,64.16 L127.935,31.05 L123.26,31.05 L120.235,69 L123.755,69 L126.23,36.605 L139.43,69.22 L142.4,69.22 L155.545,36.605 L158.02,69 L161.705,69 Z M188.765,69 L188.765,50.465 C188.765,45.13 185.795,42.435 180.02,42.435 C176.335,42.435 173.365,43.37 170.34,44.69 L170.835,47.935 C173.695,46.56 176.72,45.625 179.8,45.625 C183.1,45.625 185.19,47.11 185.19,50.63 L185.19,52.335 C173.42,53.49 168.47,56.35 168.47,62.455 C168.47,67.075 171.715,69.55 176.225,69.55 C179.965,69.55 182.99,67.79 185.41,65.535 L186.015,69 L188.765,69 Z M185.19,62.565 C182.66,64.93 179.58,66.47 176.775,66.47 C174.025,66.47 172.1,65.04 172.1,62.235 C172.1,58.715 174.96,56.24 185.19,55.195 L185.19,62.565 Z M217.53,69 L217.53,50.41 C217.53,45.405 214.945,42.435 209.775,42.435 C206.255,42.435 203.285,44.305 200.425,46.835 L199.82,42.985 L197.015,42.985 L197.015,69 L200.645,69 L200.645,50.19 C203.505,47.385 206.31,45.68 209.06,45.68 C212.36,45.68 213.9,47.715 213.9,51.07 L213.9,69 L217.53,69 Z M246.075,69 L246.075,42.985 L242.445,42.985 L242.445,61.795 C239.585,64.6 236.78,66.25 234.03,66.25 C230.73,66.25 229.19,64.27 229.19,60.915 L229.19,42.985 L225.56,42.985 L225.56,61.575 C225.56,66.525 228.09,69.55 233.315,69.55 C236.835,69.55 239.805,67.68 242.665,65.15 L243.27,69 L246.075,69 Z M273.19,69 L273.19,50.465 C273.19,45.13 270.22,42.435 264.445,42.435 C260.76,42.435 257.79,43.37 254.765,44.69 L255.26,47.935 C258.12,46.56 261.145,45.625 264.225,45.625 C267.525,45.625 269.615,47.11 269.615,50.63 L269.615,52.335 C257.845,53.49 252.895,56.35 252.895,62.455 C252.895,67.075 256.14,69.55 260.65,69.55 C264.39,69.55 267.415,67.79 269.835,65.535 L270.44,69 L273.19,69 Z M269.615,62.565 C267.085,64.93 264.005,66.47 261.2,66.47 C258.45,66.47 256.525,65.04 256.525,62.235 C256.525,58.715 259.385,56.24 269.615,55.195 L269.615,62.565 Z M285.4,69 L285.4,29.51 L281.825,30.17 L281.825,69 L285.4,69 Z M311.58,61.96 C311.58,57.34 308.61,55.36 302.45,53.71 C298.05,52.555 296.62,51.455 296.62,49.31 C296.62,47.165 298.325,45.625 301.9,45.625 C304.485,45.625 307.125,46.395 309.49,47.66 L310.095,44.195 C307.785,43.15 305.09,42.435 302.01,42.435 C296.62,42.435 293.155,45.405 293.155,49.475 C293.155,53.765 295.63,55.635 301.405,57.12 C306.575,58.495 308.115,59.65 308.115,62.235 C308.115,64.875 305.86,66.415 302.23,66.415 C298.765,66.415 295.575,65.15 293.155,63.61 L292.55,67.13 C294.805,68.395 298.435,69.495 301.9,69.495 C307.895,69.495 311.58,66.69 311.58,61.96 Z" id="Manuals"></path>
        </g>
    </g>
</svg>